<svg xmlns="http://www.w3.org/2000/svg" aria-label="Fleet overview illustration with robots and drones" viewBox="0 0 1200 675"><defs><linearGradient id="a" x1="0" x2="1" y1="0" y2="1"><stop offset="0" stop-color="#eef4ff"/><stop offset="1" stop-color="#e8faf5"/></linearGradient></defs><path fill="url(#a)" d="M0 0h1200v675H0z"/><rect width="1020" height="455" x="90" y="110" fill="#fff" stroke="#d6e3f8" rx="28"/><rect width="220" height="88" x="220" y="370" fill="#2563eb" rx="22"/><circle cx="250" cy="468" r="24" fill="#0b1220"/><circle cx="404" cy="468" r="24" fill="#0b1220"/><rect width="220" height="126" x="500" y="332" fill="#14b8a6" rx="24"/><rect width="110" height="60" x="556" y="365" fill="#e8fbf6" rx="14"/><circle cx="778" cy="252" r="42" fill="#2563eb"/><rect width="176" height="16" x="690" y="244" fill="#14b8a6" rx="8"/><rect width="16" height="164" x="770" y="170" fill="#14b8a6" rx="8"/><circle cx="694" cy="176" r="24" fill="#0b1220"/><circle cx="870" cy="176" r="24" fill="#0b1220"/><circle cx="694" cy="340" r="24" fill="#0b1220"/><circle cx="870" cy="340" r="24" fill="#0b1220"/><text x="118" y="90" fill="#0b1220" font-family="Segoe UI, Arial" font-size="30">Portarium Fleet Overview</text></svg>